<svg width="323" height="13" viewBox="0 0 323 13" fill="none" xmlns="http://www.w3.org/2000/svg">
<path d="M10.276 5.324C10.276 7.984 8.12 10.154 5.446 10.154C2.786 10.154 0.616 7.984 0.616 5.324C0.616 2.65 2.786 0.494 5.446 0.494C8.12 0.494 10.276 2.65 10.276 5.324ZM9.842 5.324C9.842 2.902 7.868 0.928 5.446 0.928C3.024 0.928 1.05 2.902 1.05 5.324C1.05 7.746 3.024 9.72 5.446 9.72C7.868 9.72 9.842 7.746 9.842 5.324ZM7.168 7.032L7.532 7.382C7.028 7.97 6.342 8.306 5.474 8.306C3.864 8.306 2.562 7.018 2.562 5.31C2.562 3.602 3.864 2.328 5.474 2.328C6.342 2.328 7.028 2.678 7.518 3.252L7.168 3.588C6.804 3.098 6.132 2.79 5.474 2.79C4.214 2.79 3.08 3.798 3.08 5.31C3.08 6.78 4.214 7.844 5.474 7.844C6.146 7.844 6.804 7.522 7.168 7.032ZM21.6739 10H15.2619V9.076C18.6219 6.43 20.4419 4.876 20.4419 3.266C20.4419 2.076 19.4619 1.558 18.4959 1.558C17.3759 1.558 16.5079 2.034 15.9619 2.734L15.2479 1.992C15.9619 1.054 17.1799 0.521999 18.4959 0.521999C20.0499 0.521999 21.6319 1.404 21.6319 3.266C21.6319 5.17 19.6999 6.906 17.0959 8.964H21.6739V10ZM27.0203 10.168C24.4583 10.168 23.4503 7.606 23.4503 5.338C23.4503 3.056 24.4583 0.521999 27.0203 0.521999C29.5683 0.521999 30.5903 3.056 30.5903 5.338C30.5903 7.606 29.5683 10.168 27.0203 10.168ZM27.0203 9.132C28.7983 9.132 29.4003 7.2 29.4003 5.338C29.4003 3.476 28.7983 1.558 27.0203 1.558C25.2423 1.558 24.6403 3.476 24.6403 5.338C24.6403 7.2 25.2423 9.132 27.0203 9.132ZM38.4766 10H32.0646V9.076C35.4246 6.43 37.2446 4.876 37.2446 3.266C37.2446 2.076 36.2646 1.558 35.2986 1.558C34.1786 1.558 33.3106 2.034 32.7646 2.734L32.0506 1.992C32.7646 1.054 33.9826 0.521999 35.2986 0.521999C36.8526 0.521999 38.4346 1.404 38.4346 3.266C38.4346 5.17 36.5026 6.906 33.8986 8.964H38.4766V10ZM43.2631 10.168C41.6811 10.168 40.5191 9.468 39.9451 8.628L40.6311 7.9C41.1771 8.628 42.1291 9.132 43.2351 9.132C44.5931 9.132 45.4191 8.46 45.4191 7.382C45.4191 6.22 44.4671 5.73 43.0951 5.73C42.7031 5.73 42.2691 5.73 42.1291 5.744V4.68C42.2831 4.694 42.7171 4.694 43.0951 4.694C44.2711 4.694 45.2651 4.232 45.2651 3.154C45.2651 2.118 44.3131 1.558 43.1791 1.558C42.1571 1.558 41.4011 1.95 40.7151 2.692L40.0711 1.964C40.7431 1.152 41.8211 0.521999 43.2631 0.521999C45.0551 0.521999 46.4271 1.432 46.4271 3.014C46.4271 4.358 45.2931 5.03 44.4111 5.184C45.2651 5.254 46.5671 5.982 46.5671 7.48C46.5671 9.034 45.3211 10.168 43.2631 10.168ZM56.4574 10.168C53.7694 10.168 51.6554 8.208 51.6554 5.338C51.6554 2.468 53.7694 0.508 56.4574 0.508C58.1094 0.508 59.2574 1.306 59.9994 2.356L59.0194 2.902C58.4874 2.118 57.5214 1.544 56.4574 1.544C54.4134 1.544 52.8594 3.112 52.8594 5.338C52.8594 7.55 54.4134 9.132 56.4574 9.132C57.5214 9.132 58.4874 8.572 59.0194 7.774L60.0134 8.32C59.2294 9.384 58.1094 10.168 56.4574 10.168ZM62.5023 10H61.4523V3.238H62.5023V4.33C63.0483 3.616 63.8323 3.098 64.7563 3.098V4.176C64.6303 4.148 64.5043 4.134 64.3363 4.134C63.6923 4.134 62.8103 4.666 62.5023 5.212V10ZM69.1254 10.168C67.1234 10.168 65.6814 8.726 65.6814 6.612C65.6814 4.652 67.0814 3.07 69.0134 3.07C71.0574 3.07 72.2614 4.666 72.2614 6.696V6.962H66.7874C66.8714 8.236 67.7674 9.3 69.2234 9.3C69.9934 9.3 70.7774 8.992 71.3094 8.446L71.8134 9.132C71.1414 9.804 70.2314 10.168 69.1254 10.168ZM71.2254 6.192C71.2114 5.184 70.5394 3.938 68.9994 3.938C67.5574 3.938 66.8434 5.156 66.7874 6.192H71.2254ZM79.2401 10H78.1901V9.23C77.6301 9.846 76.8601 10.168 75.9501 10.168C74.8021 10.168 73.5841 9.398 73.5841 7.928C73.5841 6.416 74.8021 5.702 75.9501 5.702C76.8741 5.702 77.6441 5.996 78.1901 6.626V5.408C78.1901 4.498 77.4621 3.98 76.4821 3.98C75.6701 3.98 75.0121 4.274 74.4101 4.918L73.9201 4.19C74.6481 3.434 75.5161 3.07 76.6221 3.07C78.0501 3.07 79.2401 3.714 79.2401 5.352V10ZM76.3281 9.412C77.0701 9.412 77.7841 9.132 78.1901 8.572V7.298C77.7841 6.738 77.0701 6.458 76.3281 6.458C75.3481 6.458 74.6621 7.074 74.6621 7.942C74.6621 8.796 75.3481 9.412 76.3281 9.412ZM83.0529 10.168C82.0589 10.168 81.5549 9.594 81.5549 8.586V4.162H80.4349V3.238H81.5549V1.39H82.6049V3.238H83.9769V4.162H82.6049V8.362C82.6049 8.866 82.8289 9.23 83.2909 9.23C83.5849 9.23 83.8649 9.104 84.0049 8.95L84.3129 9.734C84.0469 9.986 83.6689 10.168 83.0529 10.168ZM85.9782 2.272C85.6002 2.272 85.2782 1.964 85.2782 1.572C85.2782 1.18 85.6002 0.857999 85.9782 0.857999C86.3702 0.857999 86.6922 1.18 86.6922 1.572C86.6922 1.964 86.3702 2.272 85.9782 2.272ZM86.5102 10H85.4602V3.238H86.5102V10ZM91.5587 10H90.4107L87.5967 3.238H88.7307L90.9847 8.782L93.2247 3.238H94.3727L91.5587 10ZM98.52 10.168C96.518 10.168 95.076 8.726 95.076 6.612C95.076 4.652 96.476 3.07 98.408 3.07C100.452 3.07 101.656 4.666 101.656 6.696V6.962H96.182C96.266 8.236 97.162 9.3 98.618 9.3C99.388 9.3 100.172 8.992 100.704 8.446L101.208 9.132C100.536 9.804 99.626 10.168 98.52 10.168ZM100.62 6.192C100.606 5.184 99.934 3.938 98.394 3.938C96.952 3.938 96.238 5.156 96.182 6.192H100.62ZM110.2 10H107.008V0.661999H110.2C113.098 0.661999 114.988 2.692 114.988 5.338C114.988 7.998 113.098 10 110.2 10ZM110.2 8.964C112.468 8.964 113.784 7.34 113.784 5.338C113.784 3.322 112.51 1.698 110.2 1.698H108.17V8.964H110.2ZM119.821 10.168C117.819 10.168 116.377 8.726 116.377 6.612C116.377 4.652 117.777 3.07 119.709 3.07C121.753 3.07 122.957 4.666 122.957 6.696V6.962H117.483C117.567 8.236 118.463 9.3 119.919 9.3C120.689 9.3 121.473 8.992 122.005 8.446L122.509 9.132C121.837 9.804 120.927 10.168 119.821 10.168ZM121.921 6.192C121.907 5.184 121.235 3.938 119.695 3.938C118.253 3.938 117.539 5.156 117.483 6.192H121.921ZM126.799 10.168C125.693 10.168 124.755 9.832 124.069 9.104L124.615 8.348C125.063 8.866 125.917 9.314 126.841 9.314C127.877 9.314 128.437 8.824 128.437 8.152C128.437 6.514 124.251 7.522 124.251 5.016C124.251 3.966 125.161 3.07 126.771 3.07C127.919 3.07 128.731 3.504 129.277 4.05L128.787 4.778C128.381 4.288 127.639 3.924 126.771 3.924C125.847 3.924 125.273 4.386 125.273 4.988C125.273 6.472 129.459 5.492 129.459 8.124C129.459 9.258 128.549 10.168 126.799 10.168ZM131.683 2.272C131.305 2.272 130.983 1.964 130.983 1.572C130.983 1.18 131.305 0.857999 131.683 0.857999C132.075 0.857999 132.397 1.18 132.397 1.572C132.397 1.964 132.075 2.272 131.683 2.272ZM132.215 10H131.165V3.238H132.215V10ZM137.026 12.744C135.878 12.744 135.094 12.52 134.296 11.736L134.828 10.952C135.388 11.624 136.06 11.876 137.026 11.876C138.146 11.876 139.196 11.33 139.196 9.846V8.88C138.706 9.566 137.88 10.084 136.928 10.084C135.164 10.084 133.918 8.768 133.918 6.584C133.918 4.414 135.15 3.07 136.928 3.07C137.838 3.07 138.65 3.518 139.196 4.26V3.238H140.246V9.804C140.246 12.044 138.678 12.744 137.026 12.744ZM137.18 9.16C138.02 9.16 138.832 8.642 139.196 8.054V5.1C138.832 4.512 138.02 4.008 137.18 4.008C135.822 4.008 135.01 5.086 135.01 6.584C135.01 8.068 135.822 9.16 137.18 9.16ZM147.963 10H146.913V5.576C146.913 4.386 146.311 4.008 145.401 4.008C144.575 4.008 143.791 4.512 143.399 5.058V10H142.349V3.238H143.399V4.218C143.875 3.658 144.799 3.07 145.807 3.07C147.221 3.07 147.963 3.784 147.963 5.254V10ZM161.705 10H160.375L159.549 7.928H154.901L154.075 10H152.745L156.497 0.661999H157.939L161.705 10ZM159.199 6.892L157.225 1.866L155.237 6.892H159.199ZM165.6 12.744C164.452 12.744 163.668 12.52 162.87 11.736L163.402 10.952C163.962 11.624 164.634 11.876 165.6 11.876C166.72 11.876 167.77 11.33 167.77 9.846V8.88C167.28 9.566 166.454 10.084 165.502 10.084C163.738 10.084 162.492 8.768 162.492 6.584C162.492 4.414 163.724 3.07 165.502 3.07C166.412 3.07 167.224 3.518 167.77 4.26V3.238H168.82V9.804C168.82 12.044 167.252 12.744 165.6 12.744ZM165.754 9.16C166.594 9.16 167.406 8.642 167.77 8.054V5.1C167.406 4.512 166.594 4.008 165.754 4.008C164.396 4.008 163.584 5.086 163.584 6.584C163.584 8.068 164.396 9.16 165.754 9.16ZM173.975 10.168C171.973 10.168 170.531 8.726 170.531 6.612C170.531 4.652 171.931 3.07 173.863 3.07C175.907 3.07 177.111 4.666 177.111 6.696V6.962H171.637C171.721 8.236 172.617 9.3 174.073 9.3C174.843 9.3 175.627 8.992 176.159 8.446L176.663 9.132C175.991 9.804 175.081 10.168 173.975 10.168ZM176.075 6.192C176.061 5.184 175.389 3.938 173.849 3.938C172.407 3.938 171.693 5.156 171.637 6.192H176.075ZM184.426 10H183.376V5.576C183.376 4.386 182.774 4.008 181.864 4.008C181.038 4.008 180.254 4.512 179.862 5.058V10H178.812V3.238H179.862V4.218C180.338 3.658 181.262 3.07 182.27 3.07C183.684 3.07 184.426 3.784 184.426 5.254V10ZM189.505 10.168C187.489 10.168 186.131 8.628 186.131 6.612C186.131 4.61 187.489 3.07 189.505 3.07C190.737 3.07 191.465 3.574 191.983 4.246L191.283 4.89C190.835 4.274 190.261 4.008 189.561 4.008C188.119 4.008 187.223 5.114 187.223 6.612C187.223 8.11 188.119 9.23 189.561 9.23C190.261 9.23 190.835 8.95 191.283 8.348L191.983 8.992C191.465 9.664 190.737 10.168 189.505 10.168ZM193.076 12.646L193.244 11.694C193.398 11.764 193.65 11.806 193.818 11.806C194.28 11.806 194.588 11.652 194.826 11.092L195.274 10.07L192.446 3.238H193.58L195.834 8.782L198.074 3.238H199.222L195.834 11.372C195.428 12.352 194.742 12.73 193.846 12.744C193.622 12.744 193.272 12.702 193.076 12.646ZM200.939 9.664C200.939 10.518 200.435 11.316 199.791 11.778L199.273 11.344C199.721 11.05 200.127 10.504 200.183 10.042C200.155 10.056 200.057 10.07 199.987 10.07C199.595 10.07 199.315 9.776 199.315 9.356C199.315 8.95 199.637 8.6 200.057 8.6C200.519 8.6 200.939 8.992 200.939 9.664ZM214.397 10H213.067L212.241 7.928H207.593L206.767 10H205.437L209.189 0.661999H210.631L214.397 10ZM211.891 6.892L209.917 1.866L207.929 6.892H211.891ZM216.625 10H215.575V0.661999H216.625V10ZM219.77 10H218.72V0.661999H219.77V10ZM232.292 10H230.92L228.54 6.29H226.678V10H225.516V0.661999H229.268C230.976 0.661999 232.194 1.754 232.194 3.476C232.194 5.156 231.046 6.08 229.772 6.192L232.292 10ZM229.128 5.268C230.234 5.268 230.99 4.526 230.99 3.476C230.99 2.426 230.234 1.698 229.128 1.698H226.678V5.268H229.128ZM234.509 2.272C234.131 2.272 233.809 1.964 233.809 1.572C233.809 1.18 234.131 0.857999 234.509 0.857999C234.901 0.857999 235.223 1.18 235.223 1.572C235.223 1.964 234.901 2.272 234.509 2.272ZM235.041 10H233.991V3.238H235.041V10ZM239.852 12.744C238.704 12.744 237.92 12.52 237.122 11.736L237.654 10.952C238.214 11.624 238.886 11.876 239.852 11.876C240.972 11.876 242.022 11.33 242.022 9.846V8.88C241.532 9.566 240.706 10.084 239.754 10.084C237.99 10.084 236.744 8.768 236.744 6.584C236.744 4.414 237.976 3.07 239.754 3.07C240.664 3.07 241.476 3.518 242.022 4.26V3.238H243.072V9.804C243.072 12.044 241.504 12.744 239.852 12.744ZM240.006 9.16C240.846 9.16 241.658 8.642 242.022 8.054V5.1C241.658 4.512 240.846 4.008 240.006 4.008C238.648 4.008 237.836 5.086 237.836 6.584C237.836 8.068 238.648 9.16 240.006 9.16ZM250.803 10H249.753V5.548C249.753 4.358 249.137 4.008 248.227 4.008C247.415 4.008 246.631 4.512 246.225 5.058V10H245.175V0.661999H246.225V4.218C246.701 3.658 247.625 3.07 248.647 3.07C250.061 3.07 250.803 3.756 250.803 5.226V10ZM254.608 10.168C253.614 10.168 253.11 9.594 253.11 8.586V4.162H251.99V3.238H253.11V1.39H254.16V3.238H255.532V4.162H254.16V8.362C254.16 8.866 254.384 9.23 254.846 9.23C255.14 9.23 255.42 9.104 255.56 8.95L255.868 9.734C255.602 9.986 255.224 10.168 254.608 10.168ZM259.157 10.168C258.051 10.168 257.113 9.832 256.427 9.104L256.973 8.348C257.421 8.866 258.275 9.314 259.199 9.314C260.235 9.314 260.795 8.824 260.795 8.152C260.795 6.514 256.609 7.522 256.609 5.016C256.609 3.966 257.519 3.07 259.129 3.07C260.277 3.07 261.089 3.504 261.635 4.05L261.145 4.778C260.739 4.288 259.997 3.924 259.129 3.924C258.205 3.924 257.631 4.386 257.631 4.988C257.631 6.472 261.817 5.492 261.817 8.124C261.817 9.258 260.907 10.168 259.157 10.168ZM273.95 10H272.578L270.198 6.29H268.336V10H267.174V0.661999H270.926C272.634 0.661999 273.852 1.754 273.852 3.476C273.852 5.156 272.704 6.08 271.43 6.192L273.95 10ZM270.786 5.268C271.892 5.268 272.648 4.526 272.648 3.476C272.648 2.426 271.892 1.698 270.786 1.698H268.336V5.268H270.786ZM278.278 10.168C276.276 10.168 274.834 8.726 274.834 6.612C274.834 4.652 276.234 3.07 278.166 3.07C280.21 3.07 281.414 4.666 281.414 6.696V6.962H275.94C276.024 8.236 276.92 9.3 278.376 9.3C279.146 9.3 279.93 8.992 280.462 8.446L280.966 9.132C280.294 9.804 279.384 10.168 278.278 10.168ZM280.378 6.192C280.364 5.184 279.692 3.938 278.152 3.938C276.71 3.938 275.996 5.156 275.94 6.192H280.378ZM285.256 10.168C284.15 10.168 283.212 9.832 282.526 9.104L283.072 8.348C283.52 8.866 284.374 9.314 285.298 9.314C286.334 9.314 286.894 8.824 286.894 8.152C286.894 6.514 282.708 7.522 282.708 5.016C282.708 3.966 283.618 3.07 285.228 3.07C286.376 3.07 287.188 3.504 287.734 4.05L287.244 4.778C286.838 4.288 286.096 3.924 285.228 3.924C284.304 3.924 283.73 4.386 283.73 4.988C283.73 6.472 287.916 5.492 287.916 8.124C287.916 9.258 287.006 10.168 285.256 10.168ZM292.674 10.168C290.672 10.168 289.23 8.726 289.23 6.612C289.23 4.652 290.63 3.07 292.562 3.07C294.606 3.07 295.81 4.666 295.81 6.696V6.962H290.336C290.42 8.236 291.316 9.3 292.772 9.3C293.542 9.3 294.326 8.992 294.858 8.446L295.362 9.132C294.69 9.804 293.78 10.168 292.674 10.168ZM294.774 6.192C294.76 5.184 294.088 3.938 292.548 3.938C291.106 3.938 290.392 5.156 290.336 6.192H294.774ZM298.561 10H297.511V3.238H298.561V4.33C299.107 3.616 299.891 3.098 300.815 3.098V4.176C300.689 4.148 300.563 4.134 300.395 4.134C299.751 4.134 298.869 4.666 298.561 5.212V10ZM305.086 10H303.938L301.124 3.238H302.258L304.512 8.782L306.752 3.238H307.9L305.086 10ZM312.047 10.168C310.045 10.168 308.603 8.726 308.603 6.612C308.603 4.652 310.003 3.07 311.935 3.07C313.979 3.07 315.183 4.666 315.183 6.696V6.962H309.709C309.793 8.236 310.689 9.3 312.145 9.3C312.915 9.3 313.699 8.992 314.231 8.446L314.735 9.132C314.063 9.804 313.153 10.168 312.047 10.168ZM314.147 6.192C314.133 5.184 313.461 3.938 311.921 3.938C310.479 3.938 309.765 5.156 309.709 6.192H314.147ZM322.834 10H321.784V8.992C321.28 9.678 320.454 10.168 319.502 10.168C317.738 10.168 316.492 8.824 316.492 6.626C316.492 4.47 317.724 3.07 319.502 3.07C320.412 3.07 321.238 3.518 321.784 4.26V0.661999H322.834V10ZM319.754 9.23C320.594 9.23 321.406 8.754 321.784 8.166V5.1C321.406 4.512 320.594 4.008 319.754 4.008C318.396 4.008 317.584 5.128 317.584 6.626C317.584 8.124 318.396 9.23 319.754 9.23Z" fill="#F5F5F5"/>
</svg>
